<?xml version="1.0" encoding="UTF-8"?>
<svg xmlns="http://www.w3.org/2000/svg" xmlns:xlink="http://www.w3.org/1999/xlink" width="20px" height="20px" viewBox="0 0 20 20" version="1.1">
<g id="surface1">
<path style=" stroke:none;fill-rule:nonzero;fill:rgb(100%,99.215686%,99.215686%);fill-opacity:1;" d="M 10 20 C 15.523438 20 20 15.523438 20 10 C 20 4.476562 15.523438 0 10 0 C 4.476562 0 0 4.476562 0 10 C 0 15.523438 4.476562 20 10 20 Z M 7.1875 9.0625 L 12.8125 9.0625 C 13.332031 9.0625 13.75 9.480469 13.75 10 C 13.75 10.519531 13.332031 10.9375 12.8125 10.9375 L 7.1875 10.9375 C 6.667969 10.9375 6.25 10.519531 6.25 10 C 6.25 9.480469 6.667969 9.0625 7.1875 9.0625 Z M 7.1875 9.0625 "/>
</g>
</svg>
